<svg width="25" height="19" viewBox="0 0 25 19" fill="none" xmlns="http://www.w3.org/2000/svg">
<path d="M20.5738 1.53558C19.0248 0.824825 17.3637 0.301174 15.6269 0.00125811C15.5953 -0.00453018 15.5637 0.00993507 15.5474 0.0388663C15.3338 0.418823 15.0971 0.914507 14.9314 1.30411C13.0634 1.02445 11.205 1.02445 9.37532 1.30411C9.20958 0.905847 8.96435 0.418823 8.74977 0.0388663C8.73347 0.0109004 8.70188 -0.00356489 8.67025 0.00125811C6.93445 0.300216 5.27337 0.823866 3.7234 1.53558C3.70998 1.54136 3.69848 1.55101 3.69085 1.56354C0.540132 6.27064 -0.322981 10.862 0.100433 15.3965C0.102349 15.4187 0.114803 15.4399 0.132046 15.4534C2.2108 16.98 4.22443 17.9068 6.20066 18.5211C6.23229 18.5307 6.2658 18.5192 6.28593 18.4931C6.75341 17.8547 7.17012 17.1816 7.52741 16.4737C7.5485 16.4323 7.52837 16.3831 7.48528 16.3667C6.8243 16.1159 6.19491 15.8102 5.58948 15.4631C5.5416 15.4351 5.53776 15.3666 5.58182 15.3338C5.70922 15.2384 5.83666 15.139 5.95831 15.0387C5.98032 15.0204 6.01099 15.0165 6.03687 15.0281C10.0143 16.844 14.3203 16.844 18.2507 15.0281C18.2766 15.0156 18.3073 15.0195 18.3302 15.0378C18.4519 15.1381 18.5793 15.2384 18.7077 15.3338C18.7517 15.3666 18.7489 15.4351 18.701 15.4631C18.0955 15.817 17.4662 16.1159 16.8042 16.3657C16.7611 16.3821 16.742 16.4323 16.763 16.4737C17.128 17.1806 17.5447 17.8537 18.0036 18.4922C18.0227 18.5192 18.0572 18.5307 18.0888 18.5211C20.0747 17.9068 22.0883 16.98 24.167 15.4534C24.1852 15.4399 24.1967 15.4197 24.1987 15.3975C24.7054 10.1551 23.3499 5.60138 20.6054 1.5645C20.5986 1.55101 20.5872 1.54136 20.5738 1.53558ZM8.12137 12.6355C6.92391 12.6355 5.93723 11.5361 5.93723 10.186C5.93723 8.83587 6.90477 7.73651 8.12137 7.73651C9.34753 7.73651 10.3247 8.84553 10.3055 10.186C10.3055 11.5361 9.33794 12.6355 8.12137 12.6355ZM16.1969 12.6355C14.9994 12.6355 14.0128 11.5361 14.0128 10.186C14.0128 8.83587 14.9803 7.73651 16.1969 7.73651C17.4231 7.73651 18.4002 8.84553 18.381 10.186C18.381 11.5361 17.4231 12.6355 16.1969 12.6355Z" fill="#4C4D4F"/>
</svg>
