<svg width="18" height="21" viewBox="0 0 18 21" fill="none" xmlns="http://www.w3.org/2000/svg">
<path d="M14.0066 9.69677C13.9165 9.65358 13.8249 9.61201 13.7322 9.5722C13.5707 6.59666 11.9448 4.89316 9.21466 4.87572C9.20229 4.87564 9.18999 4.87564 9.17762 4.87564C7.54465 4.87564 6.18653 5.57266 5.35062 6.84101L6.8521 7.87098C7.47656 6.92357 8.45659 6.7216 9.17834 6.7216C9.18668 6.7216 9.19504 6.7216 9.20329 6.72167C10.1022 6.72741 10.7806 6.98876 11.2196 7.49844C11.5391 7.86951 11.7528 8.38227 11.8586 9.02941C11.0616 8.89395 10.1996 8.8523 9.2782 8.90513C6.68251 9.05464 5.0138 10.5685 5.12588 12.672C5.18275 13.739 5.71432 14.6569 6.62261 15.2566C7.39057 15.7635 8.37964 16.0114 9.40758 15.9552C10.7651 15.8808 11.83 15.3629 12.573 14.4159C13.1372 13.6967 13.4941 12.7647 13.6517 11.5904C14.2986 11.9808 14.7781 12.4946 15.0429 13.1122C15.4932 14.1621 15.5194 15.8874 14.1116 17.2939C12.8782 18.5261 11.3956 19.0592 9.1549 19.0756C6.66938 19.0572 4.78962 18.2601 3.56745 16.7065C2.42299 15.2517 1.83152 13.1503 1.80946 10.4608C1.83152 7.77127 2.42299 5.66994 3.56745 4.21513C4.78962 2.6615 6.66935 1.86442 9.15487 1.84595C11.6584 1.86456 13.5709 2.66548 14.8399 4.2266C15.4621 4.99216 15.9312 5.95491 16.2405 7.07743L18 6.60799C17.6251 5.22629 17.0353 4.03566 16.2326 3.04824C14.6058 1.04681 12.2266 0.0212647 9.161 0H9.14873C6.08938 0.0211908 3.73679 1.05064 2.15632 3.05971C0.749916 4.84754 0.0244527 7.33518 7.62782e-05 10.4535L0 10.4608L7.62782e-05 10.4682C0.0244527 13.5864 0.749916 16.0741 2.15632 17.862C3.73679 19.871 6.08938 20.9005 9.14873 20.9216H9.161C11.8809 20.9028 13.7981 20.1907 15.3775 18.6127C17.4439 16.5484 17.3817 13.9607 16.7006 12.3722C16.212 11.2331 15.2805 10.3078 14.0066 9.69677ZM9.3104 14.112C8.17276 14.176 6.99087 13.6654 6.93259 12.5717C6.88939 11.7608 7.50971 10.8559 9.38022 10.7481C9.59443 10.7358 9.80463 10.7297 10.0111 10.7297C10.6906 10.7297 11.3262 10.7957 11.904 10.9221C11.6885 13.6138 10.4242 14.0508 9.3104 14.112Z" fill="#4C4D4F"/>
</svg>
