<svg width="50" height="50" viewBox="0 0 50 50" fill="none" xmlns="http://www.w3.org/2000/svg">
<path d="M19.7891 28.6458C19.7891 30.6667 21.3516 32.2917 23.2682 32.2917H27.1849C28.8516 32.2917 30.2057 30.875 30.2057 29.1042C30.2057 27.2083 29.3724 26.5208 28.1432 26.0833L21.8724 23.8958C20.6432 23.4583 19.8099 22.7917 19.8099 20.875C19.8099 19.125 21.1641 17.6875 22.8307 17.6875H26.7474C28.6641 17.6875 30.2266 19.3125 30.2266 21.3333M24.9974 15.625V34.375" stroke="white" stroke-width="3.125" stroke-linecap="round" stroke-linejoin="round"/>
<path d="M45.8307 25.0001C45.8307 36.5001 36.4974 45.8334 24.9974 45.8334C13.4974 45.8334 4.16406 36.5001 4.16406 25.0001C4.16406 13.5001 13.4974 4.16675 24.9974 4.16675" stroke="white" stroke-width="3.125" stroke-linecap="round" stroke-linejoin="round"/>
<path d="M35.4141 6.25008V14.5834M35.4141 14.5834H43.7474M35.4141 14.5834L45.8307 4.16675" stroke="white" stroke-width="3.125" stroke-linecap="round" stroke-linejoin="round"/>
</svg>
