<svg width="22" height="23" viewBox="0 0 22 23" fill="none" xmlns="http://www.w3.org/2000/svg">
<path d="M0.351562 7.52185H4.56496V22.2688H0.351562V7.52185Z" fill="#4C4D4F"/>
<path d="M2.45782 4.91563C3.81523 4.91563 4.91563 3.81523 4.91563 2.45782C4.91563 1.1004 3.81523 0 2.45782 0C1.1004 0 0 1.1004 0 2.45782C0 3.81523 1.1004 4.91563 2.45782 4.91563Z" fill="#4C4D4F"/>
<path d="M14.7684 11.0331C13.2172 11.0331 11.9595 11.8533 11.9595 14.1931V22.2688H7.74609V7.5219H11.9595V9.07383H11.9584C12.4851 8.47501 13.1335 7.9955 13.8603 7.66732C14.5872 7.33914 15.3757 7.16986 16.1732 7.17078C19.2756 7.17078 21.791 9.48815 21.791 13.4909V22.2688H17.5776V14.1931C17.5776 11.8533 16.3197 11.0331 14.7684 11.0331Z" fill="#4C4D4F"/>
</svg>
