<svg width="50" height="50" viewBox="0 0 50 50" fill="none" xmlns="http://www.w3.org/2000/svg">
<path d="M38.5404 26.3541V34.0625C38.5404 40.5625 32.4779 45.8333 24.9987 45.8333C17.5195 45.8333 11.457 40.5625 11.457 34.0625V26.3541C11.457 32.8541 17.5195 37.5 24.9987 37.5C32.4779 37.5 38.5404 32.8541 38.5404 26.3541Z" stroke="#F62E8E" stroke-width="3.125" stroke-linecap="round" stroke-linejoin="round"/>
<path d="M38.5404 15.9375C38.5404 17.8333 38.0195 19.5833 37.1029 21.0833C34.8737 24.75 30.2904 27.0833 24.9987 27.0833C19.707 27.0833 15.1237 24.75 12.8945 21.0833C11.9779 19.5833 11.457 17.8333 11.457 15.9375C11.457 12.6875 12.9779 9.74996 15.4154 7.62496C17.8737 5.47913 21.2487 4.16663 24.9987 4.16663C28.7487 4.16663 32.1237 5.47913 34.582 7.60413C37.0195 9.74996 38.5404 12.6875 38.5404 15.9375Z" stroke="#F62E8E" stroke-width="3.125" stroke-linecap="round" stroke-linejoin="round"/>
<path d="M38.5404 15.9375V26.3541C38.5404 32.8541 32.4779 37.5 24.9987 37.5C17.5195 37.5 11.457 32.8541 11.457 26.3541V15.9375C11.457 9.43746 17.5195 4.16663 24.9987 4.16663C28.7487 4.16663 32.1237 5.47913 34.582 7.60413C37.0195 9.74996 38.5404 12.6875 38.5404 15.9375Z" stroke="#F62E8E" stroke-width="3.125" stroke-linecap="round" stroke-linejoin="round"/>
</svg>
