<svg width="179" height="25" viewBox="0 0 179 25" fill="none" xmlns="http://www.w3.org/2000/svg">
<g filter="url(#filter0_d_179_2661)">
<path d="M157.701 5.43052C158.586 5.8658 159.475 6.1152 160.482 5.79991C161.531 5.4705 162.482 5.7152 163.36 6.41872C164.256 7.13871 165.31 7.34576 166.44 7.03047L166.411 7.0587C167.021 7.18106 167.407 7.67987 167.915 7.96928C168.11 8.07986 168.178 8.40457 168.324 8.61868C168.461 8.82103 168.654 8.83281 169 8.63517C169.458 8.37164 169.522 8.38341 169.682 8.90104C169.811 9.31751 169.983 9.62338 170.374 9.77632C170.738 9.91984 171.129 9.99983 171.491 10.1457C172.527 10.5575 173.555 10.9857 174.583 11.4139C174.628 11.4328 174.677 11.5387 174.663 11.5857C174.628 11.701 174.581 11.8281 174.498 11.9057C174.406 11.9928 174.275 12.0681 174.155 12.0822C172.917 12.2139 171.682 12.3551 170.439 12.4398C170.061 12.4657 169.663 12.3551 169.284 12.2633C167.941 11.941 166.59 11.6681 165.216 11.5198C165.04 11.501 164.847 11.5975 164.668 11.6586C164.64 11.668 164.616 11.7998 164.642 11.8304C164.72 11.9222 164.814 12.0186 164.922 12.061C165.844 12.4257 166.821 12.5786 167.781 12.7974C168.802 13.0327 169.844 13.2163 170.757 13.7786C170.797 13.8021 170.816 13.8939 170.811 13.9504C170.807 13.9998 170.767 14.0586 170.727 14.0939C170.68 14.1339 170.614 14.1715 170.552 14.1786C169.301 14.2962 168.063 14.2751 166.889 13.7362C166.71 13.6539 166.548 13.5221 166.362 13.4751C164.901 13.0986 163.435 12.7315 161.969 12.381C161.877 12.3598 161.731 12.4704 161.644 12.5528C161.529 12.6633 161.564 13.0257 161.673 13.0939C161.781 13.1621 161.88 13.261 161.997 13.2962C162.938 13.5786 163.863 13.9057 164.849 14.0351C167.153 14.3386 169.27 15.2539 171.407 16.1033C171.644 16.1974 171.849 16.3785 172.061 16.5315C172.101 16.5621 172.117 16.6538 172.11 16.7127C172.103 16.7644 172.061 16.8421 172.016 16.8562C171.832 16.915 171.644 16.9927 171.456 16.9927C170.917 16.9927 170.414 17.0962 169.952 17.3879C169.543 17.6468 169.084 17.7127 168.623 17.6068C167.856 17.4303 167.098 17.2233 166.338 17.0186C166.023 16.9339 165.722 16.7739 165.404 16.7315C162.924 16.3997 160.506 15.7574 158.056 15.2703C154.315 14.5245 150.548 13.9504 146.774 13.4021C143.911 12.988 141.033 12.7127 138.165 12.3527C137.774 12.3033 137.379 12.2822 136.986 12.2516C133.643 11.9951 130.301 11.7339 126.958 11.4869C124.664 11.3151 122.37 11.1622 120.076 10.9998C120.01 10.9951 119.944 10.9975 119.878 10.9881C117.008 10.5904 114.111 10.5787 111.226 10.3763C109.916 10.2846 108.601 10.221 107.285 10.2022C104.064 10.1528 100.843 10.1434 97.6219 10.1034C96.5043 10.0893 95.3891 10.0398 94.2714 10.0022C94.0079 9.99277 93.7396 9.92691 93.4855 9.96221C91.7114 10.2069 89.9397 9.91515 88.1703 9.95985C86.3962 10.0069 84.6245 10.1175 82.8504 10.1575C80.7469 10.2045 78.6434 10.1975 76.5423 10.2257C75.6882 10.2375 74.8318 10.2469 73.9824 10.3057C71.4883 10.4798 68.9942 10.5386 66.4931 10.5598C63.6013 10.5834 60.7097 10.6163 57.825 10.8892C55.4697 11.1128 53.1027 11.2069 50.7474 11.4257C48.6557 11.621 46.5617 11.7881 44.477 12.0798C42.4606 12.3598 40.43 12.5363 38.4041 12.7692C36.7736 12.9574 35.1454 13.1645 33.5172 13.3598C30.9713 13.6657 28.4254 13.9668 25.8819 14.2774C23.5338 14.5645 21.1856 14.8609 18.8374 15.148C15.6327 15.5386 12.5222 16.3809 9.3905 17.1268C9.13403 17.188 8.88227 17.2633 8.63051 17.3362C7.66582 17.6138 6.70105 17.7221 5.72224 17.3832C5.47754 17.2985 5.2023 17.3103 4.94583 17.2515C4.30349 17.1056 3.82119 16.3503 4.10589 15.7221C4.37882 15.1221 4.31767 14.6162 4.12944 14.0351C4.01179 13.6704 3.95994 13.2398 4.03523 12.8704C4.25405 11.7716 3.79062 10.6351 4.24709 9.55748C4.32238 9.37866 4.43055 9.18573 4.42114 9.0022C4.36702 7.92693 4.92935 7.5387 5.93168 7.35282C8.58105 6.86341 11.2092 6.2658 13.8492 5.72463C17.1362 5.04935 20.4585 4.63052 23.7973 4.30582C24.8443 4.20465 25.8867 4.07524 26.9337 3.98347C28.3055 3.86348 29.6842 3.80231 31.0489 3.58349C31.696 3.47997 32.3501 3.40936 33.0019 3.33407C33.7854 3.24231 34.5665 3.11995 35.3524 3.08936C36.7382 3.03524 38.1005 2.83056 39.4511 2.54821C40.6252 2.30586 41.7876 2.22352 42.9735 2.43763C43.8252 2.59292 44.6534 2.5788 45.4581 2.13645C45.9852 1.84469 46.6016 1.87057 47.1968 1.92704C47.9074 2.19057 47.9074 2.19292 48.4862 1.95292C47.9427 1.95292 47.5593 1.95292 47.1734 1.95292C47.4981 1.71057 47.8628 1.55763 48.2675 1.57175C48.7898 1.59293 49.3192 1.60233 49.8274 1.71056C50.4768 1.84939 51.1191 1.87528 51.7803 1.87528C52.6226 1.87293 53.4838 1.77882 54.2932 2.1694C54.4368 2.23998 54.745 2.19997 54.8462 2.09173C55.3497 1.54115 56.0108 1.54116 56.6626 1.48234C56.9237 1.45881 57.1896 1.4635 57.4461 1.41174C57.632 1.37409 57.8437 1.30822 57.9755 1.18352C58.3378 0.832934 58.7779 0.750591 59.2462 0.750591C60.6838 0.755296 62.1284 0.508243 63.5566 0.898824C64.006 1.02118 64.4766 0.974121 64.9001 0.755301C65.5072 0.442365 66.159 0.404712 66.8154 0.3953C67.6013 0.385888 68.3895 0.388239 69.1753 0.392945C69.4459 0.395298 69.6812 0.465894 69.7988 0.755301C69.9235 1.06824 70.2036 1.03294 70.4647 1.01176C70.5283 1.00705 70.6083 0.997649 70.653 0.960002C71.2412 0.428246 71.9141 0.378842 72.6694 0.496487C73.3071 0.595309 73.9659 0.552947 74.653 0.574123C74.7024 0.630593 74.7965 0.717635 74.8647 0.823516C75.0247 1.07763 75.2646 1.16704 75.5329 1.09411C75.7823 1.02587 76.0199 0.903539 76.2552 0.7906C77.1375 0.371784 78.0435 0.421168 78.947 0.675282C79.0952 0.717634 79.2246 0.927044 79.3022 1.08939C79.394 1.27998 79.5023 1.40939 79.7117 1.44233C80.1752 1.51056 80.6364 1.50351 81.0458 1.24469C82.2528 0.484707 83.5586 0.651769 84.8668 0.809413C84.9304 0.816472 85.0127 0.835306 85.048 0.880012C85.6409 1.64 86.4833 1.35529 87.2433 1.4047C87.5962 1.42823 87.8645 1.27293 88.0951 1.00705C88.3233 0.745877 88.6479 0.661185 88.9797 0.637656C89.3726 0.609421 89.7703 0.642366 90.1561 0.583544C90.4714 0.534133 90.7726 0.388248 91.0809 0.284721L91.0597 0.308244C91.6409 0.244716 92.2244 0.181176 92.782 0.12C93.2385 0.312938 93.2126 0.764703 93.3867 1.09882C93.4878 1.29411 93.8996 1.41174 94.0714 1.26822C94.269 1.10587 94.4526 0.924691 94.6244 0.736459C94.9961 0.327054 95.4573 0.101174 96.0055 0.0870562C96.5914 0.0729388 97.1748 0.0847297 97.7395 0.0847297C97.8148 0.291785 97.4478 0.458826 97.6948 0.569413C98.0501 0.72941 98.4361 0.769406 98.5702 1.24234C98.6219 1.42351 99.1395 1.45645 99.2736 1.3294C99.3654 1.24234 99.4361 1.13175 99.516 1.03293C100.031 0.374115 100.711 0.0470672 101.54 0.0094208C101.605 0.0070679 101.671 0 101.735 0C103.565 0.0164703 105.394 0.03059 107.224 0.0611777C107.356 0.0635306 107.358 0.225879 107.245 0.352935C107.205 0.39764 107.184 0.45884 107.114 0.583544C107.401 0.595308 107.652 0.623542 107.902 0.611777C109.01 0.564719 110.116 0.399992 111.226 0.616459C111.471 0.663517 111.756 0.625895 111.998 0.552955C112.77 0.32237 113.556 0.388239 114.339 0.392945C114.671 0.395298 114.991 0.451765 115.252 0.684702C115.622 1.01176 116.073 1.09646 116.537 1.06823C117.459 1.01176 118.356 1.10588 119.252 1.34353C119.52 1.41411 119.923 1.49174 120.031 1.00469C120.047 0.927048 120.229 0.839995 120.339 0.832936C120.73 0.804702 121.123 0.797644 121.516 0.804703C121.986 0.811761 122.445 0.927058 122.77 1.27999C123.269 1.82116 123.883 1.92705 124.563 1.8447C124.876 1.80705 125.181 1.83058 125.499 1.67294C126.558 1.15059 126.567 1.17647 127.207 1.63293C127.365 1.74587 127.546 1.82351 127.716 1.91998C127.819 1.99527 127.913 2.08704 128.026 2.13881C128.193 2.2141 128.287 2.15291 128.247 2.00939C128.238 1.97174 128.137 1.94585 128.078 1.94114C127.951 1.93409 127.821 1.9435 127.694 1.94585C128.026 1.72939 128.374 1.54822 128.779 1.53645C129.106 1.52704 129.435 1.51529 129.758 1.54823C130.205 1.59293 130.673 1.43763 131.099 1.68233C130.972 2.02115 130.996 2.21409 131.163 2.21409C131.424 2.21174 131.694 2.2541 131.944 2.20234C132.807 2.02352 133.626 2.11763 134.435 2.46115C134.791 2.61174 135.181 2.68232 135.515 2.77644C135.638 2.93643 135.595 3.03054 135.414 3.05877C134.85 3.14583 134.285 3.2235 133.732 3.43526C134.054 3.43526 134.379 3.44232 134.701 3.43526C135.953 3.40467 137.172 3.54582 138.369 3.94111C138.857 4.10111 139.393 4.14582 139.911 4.18347C140.379 4.21876 140.84 4.11052 141.136 3.70582C141.748 2.87289 142.581 2.67057 143.558 2.75762C143.934 2.79056 144.179 2.85878 144.104 3.30113C144.433 3.50112 144.762 3.70349 145.092 3.90348C144.967 3.90348 144.835 3.87287 144.722 3.91052C144.619 3.94346 144.468 4.03993 144.461 4.11993C144.452 4.2117 144.56 4.3364 144.647 4.41169C144.739 4.48934 144.861 4.55288 144.979 4.5717C145.087 4.59052 145.249 4.5764 145.306 4.50817C145.353 4.4517 145.303 4.287 145.261 4.18582C145.214 4.07288 145.127 3.97642 145.056 3.8729C145.179 3.82819 145.322 3.80935 145.421 3.73405C146.614 2.81877 147.868 3.03998 149.134 3.52703C149.214 3.55761 149.303 3.73408 149.285 3.82114C149.252 3.97408 149.235 4.12464 149.379 4.15288C149.696 4.21876 150.023 4.24229 150.348 4.27288C151.005 4.33641 151.428 4.63522 151.574 5.32462C151.649 5.68226 152.007 5.80462 152.339 5.83992C153.247 5.93874 154.158 6.02343 155.068 6.08696C155.247 6.09872 155.529 6.04697 155.602 5.92462C156.028 5.2164 156.661 5.26111 157.329 5.37169C157.459 5.39287 157.583 5.42816 157.713 5.45875L157.701 5.43052ZM107.241 7.04225L107.217 7.01872C107.339 7.01637 107.459 7.02107 107.582 7.01401C107.763 7.0046 107.815 6.9293 107.711 6.82577C107.685 6.79989 107.589 6.81637 107.539 6.84226C107.436 6.89873 107.339 6.97401 107.241 7.04225ZM64.6554 5.78345C64.9637 6.04227 65.3025 6.19048 65.7166 6.08696C66.0884 5.99284 66.4625 5.90815 66.8319 5.80933C66.8813 5.79521 66.9165 5.72226 66.9565 5.67755C66.8742 5.60461 66.7966 5.47993 66.7072 5.46817C65.9849 5.37405 65.3284 5.7058 64.6343 5.81168C64.4555 5.77404 64.2743 5.71285 64.0955 5.7105C63.9284 5.70814 63.8766 5.82579 63.966 5.94579C63.9919 5.98108 64.0837 5.99285 64.1354 5.97638C64.3119 5.92226 64.4837 5.84933 64.6554 5.78345ZM26.7502 9.4328C26.6913 9.43516 26.6302 9.42808 26.5784 9.44691C26.5384 9.46102 26.5078 9.50573 26.4749 9.53867C26.5596 9.49397 26.6443 9.45163 26.7313 9.40692C27.0607 9.4234 27.3902 9.41398 27.7149 9.45868C28.4396 9.55515 29.1313 9.56691 29.8372 9.27515C30.5148 8.99515 31.2584 9.00222 31.9784 9.13869C32.8207 9.30104 33.6653 8.92929 34.5006 9.17163C35.47 9.03752 36.3876 8.62811 37.3782 8.61164C38.4558 8.04695 39.6394 7.9834 40.8134 7.85634C41.2017 7.81399 41.5852 7.73164 41.9688 7.654C42.0017 7.64694 42.0464 7.494 42.0299 7.48224C41.9358 7.41165 41.8158 7.30107 41.7193 7.31284C40.2841 7.47519 38.8536 7.68458 37.4183 7.82575C34.7383 8.09163 32.0842 8.54104 29.4043 8.80457C28.7525 8.8681 28.1031 8.99044 27.4607 9.1222C27.2137 9.17397 26.9878 9.32692 26.7502 9.4328ZM141.906 10.2281C142.186 10.0446 142.492 9.94573 142.826 9.98337C143.278 10.0328 143.725 10.1292 144.176 10.1457C144.492 10.1575 144.812 10.0704 145.127 10.0163C145.174 10.0093 145.226 9.93631 145.245 9.88454C145.264 9.83043 145.271 9.74101 145.24 9.70572C144.873 9.29631 144.4 9.09869 143.859 9.13398C143.344 9.16692 142.831 9.2775 142.315 9.30574C141.896 9.32927 141.565 9.11045 141.351 8.75517C141.252 8.59282 141.214 8.39281 141.148 8.21163C141.607 8.19516 142.071 8.134 142.525 8.17165C143.833 8.28224 145.155 8.34809 146.442 8.58809C148.703 9.00691 151.007 9.14811 153.249 9.6728C153.374 9.70104 153.51 9.69162 153.642 9.69162C153.708 9.69162 153.79 9.69161 153.833 9.65396C153.92 9.58102 154.047 9.4775 154.04 9.39279C154.033 9.29632 153.915 9.13868 153.826 9.12456C152.725 8.94103 151.623 8.77635 150.546 8.46812C150.245 8.38106 149.894 8.42575 149.572 8.45163C149.038 8.49634 148.536 8.41633 148.021 8.26574C146.703 7.87987 145.289 7.96693 143.988 7.47517C143.929 7.454 143.859 7.46811 143.793 7.47046C142.536 7.51752 141.311 7.25165 140.082 7.06813C139.099 6.92225 138.132 6.84224 137.141 6.97636C136.758 7.02812 136.339 7.05166 135.974 6.95284C135.073 6.70578 134.17 6.64696 133.245 6.66108C132.659 6.67049 132.071 6.55989 131.483 6.49871C130.96 6.4446 130.438 6.33168 129.918 6.34344C128.666 6.37168 127.426 6.28461 126.186 6.1552C125.403 6.07285 124.617 6.01872 123.829 5.97167C123.643 5.9599 123.45 6.02579 123.264 6.07285C123.224 6.08226 123.179 6.16461 123.174 6.21402C123.17 6.27284 123.196 6.38343 123.226 6.39049C123.607 6.47049 123.989 6.57402 124.374 6.60226C128.367 6.88225 132.355 7.24931 136.358 7.4046C136.685 7.41637 137.01 7.48225 137.334 7.5246C138.115 7.62578 138.894 7.73872 139.678 7.82107C140.205 7.87754 140.72 7.95046 141.179 8.24222C140.268 8.29398 139.337 8.24694 138.452 8.42811C137.53 8.61869 136.664 8.71045 135.767 8.35987C135.337 8.19281 134.868 8.17636 134.421 8.31989C134.33 8.34812 134.266 8.4987 134.212 8.60458C134.191 8.64458 134.224 8.73398 134.261 8.77633C134.344 8.8728 134.435 8.97397 134.541 9.0375C135.066 9.3575 135.628 9.44456 136.235 9.33162C137.026 9.18574 137.838 9.19516 138.513 9.63986C139.16 10.0657 139.833 10.1599 140.558 10.1693C141.014 10.174 141.471 10.1928 141.929 10.2045C141.984 10.2186 142.038 10.2304 142.092 10.2445C142.031 10.2398 141.967 10.2351 141.906 10.2281ZM80.0105 5.85873L79.987 5.83285C80.3681 5.7505 80.7492 5.59992 81.1327 5.59992C81.8504 5.59992 82.5728 5.6658 83.288 5.75051C83.6904 5.79756 84.0645 5.77875 84.4528 5.67287C84.6998 5.60464 84.9751 5.54814 85.2222 5.5905C85.7539 5.67755 86.2645 5.59052 86.7868 5.52464C87.1703 5.47523 87.5679 5.52697 87.9609 5.53638C88.3514 5.5458 88.7444 5.59755 89.1303 5.55991C89.5444 5.51991 89.9021 5.62579 90.2668 5.79284C90.5162 5.90813 90.7727 5.89168 91.0056 5.71756C91.3397 5.47286 91.7186 5.39522 92.1233 5.43287C92.9068 5.50581 93.6902 5.58344 94.4737 5.65167C94.7984 5.67991 95.149 5.7811 95.4455 5.7011C96.2337 5.48699 96.996 5.52463 97.7795 5.69168C98.0289 5.7458 98.3089 5.71993 98.5631 5.67287C100.123 5.38582 101.699 5.42345 103.274 5.42816C105.636 5.43522 107.998 5.46109 110.361 5.47992C110.53 5.53874 110.697 5.60226 110.866 5.65167C110.921 5.66814 110.989 5.65875 111.041 5.63757C111.085 5.61875 111.113 5.56697 111.149 5.52932C111.055 5.49167 110.961 5.4211 110.869 5.42345C110.69 5.42816 110.513 5.47521 110.337 5.5058C110.226 5.43521 110.125 5.33638 110.005 5.29638C108.867 4.91286 107.702 4.76698 106.511 4.97168C105.987 5.06109 105.481 5.07521 104.949 4.97404C104.504 4.88933 104.031 4.90582 103.575 4.93641C102.455 5.0117 101.349 4.96464 100.236 4.78111C99.3278 4.63288 98.4031 4.58583 97.502 4.87759C96.9231 5.06582 96.349 5.03522 95.7561 4.89405C94.7208 4.64934 93.6737 4.63993 92.6267 4.86581C92.309 4.93405 91.9632 5.01405 91.655 4.95993C91.0009 4.84464 90.3421 4.92465 89.6974 4.847C87.5963 4.59759 85.5021 4.847 83.4104 4.93641C82.0998 4.99288 80.7893 5.10816 79.474 5.12463C79.2175 5.12698 78.9611 5.19051 78.707 5.23992C78.6694 5.24697 78.6223 5.33403 78.6246 5.38108C78.6293 5.4305 78.6811 5.51051 78.7234 5.51757C79.1611 5.59522 79.6552 5.45638 80.0105 5.85873ZM52.7003 6.47519C54.5826 6.8493 56.2273 7.00459 57.559 6.91754C57.8861 6.89636 58.2297 6.89402 58.5309 6.78579C59.592 6.39991 60.6908 6.24463 61.8084 6.17404C61.8672 6.16933 61.9284 6.12696 61.9778 6.08931C62.0296 6.04931 62.1096 5.98343 62.1025 5.94579C62.0766 5.83285 62.0366 5.65404 61.9613 5.63051C61.7166 5.55286 61.4508 5.48461 61.199 5.50108C59.8955 5.58579 58.5967 5.81638 57.2815 5.65167C57.1544 5.6352 57.0203 5.66815 56.8908 5.68697C55.5309 5.89873 54.1733 6.11049 52.8157 6.32931C52.771 6.33872 52.738 6.42578 52.7003 6.47519ZM152.506 10.621C152.212 10.6539 152.082 10.6587 151.955 10.6869C151.797 10.7198 151.729 10.821 151.774 10.9551C151.793 11.0116 151.835 11.0822 151.882 11.101C152.12 11.1975 152.357 11.3081 152.607 11.3598C155.028 11.8516 157.47 12.2375 159.856 12.901C159.915 12.9174 159.99 12.9057 160.049 12.8868C160.108 12.868 160.176 12.8327 160.204 12.7833C160.228 12.7433 160.226 12.6539 160.195 12.6163C159.842 12.1998 159.353 11.9763 158.844 11.9151C157.35 11.7339 155.922 11.2798 154.461 10.9669C153.762 10.8163 153.054 10.7151 152.506 10.621ZM73.5047 5.79991C74.3682 6.00461 75.4693 5.76697 76.5728 5.7105C76.6999 5.70344 76.8434 5.68461 76.9446 5.61873C77.0317 5.55991 77.1281 5.41639 77.1117 5.32933C77.0952 5.23756 76.9423 5.09169 76.8647 5.1011C75.3823 5.27051 73.8717 5.00935 72.4012 5.40464C72.0388 5.50111 71.6271 5.43756 71.2412 5.41638C70.526 5.37638 69.8106 5.27758 69.1071 5.49405C69.0553 5.51052 68.9824 5.56228 68.9753 5.60698C68.9494 5.75051 69.0412 5.81873 69.1965 5.86109C69.6388 5.98108 70.0766 6.09639 70.5401 5.96463C71.4318 5.70581 72.347 5.75285 73.5047 5.79991ZM131.824 8.94809C131.963 8.94809 132.224 8.96929 132.48 8.9387C132.586 8.92694 132.734 8.8187 132.76 8.72693C132.786 8.63282 132.713 8.44223 132.628 8.39988C132.038 8.09635 131.414 7.91754 130.746 8.08459C130.224 8.21636 129.713 8.19281 129.203 8.03516C129.08 7.99752 128.944 7.99048 128.814 7.99518C128.687 7.99989 128.56 8.02811 128.438 8.06575C128.386 8.08222 128.334 8.14106 128.311 8.19282C128.287 8.24458 128.276 8.33635 128.306 8.37164C128.796 8.93869 129.325 9.35986 130.16 9.07516C130.65 8.9081 131.172 8.82339 131.824 8.94809ZM44.0675 7.24459C44.1805 7.28459 44.2934 7.36224 44.4063 7.36224C44.8628 7.35753 45.3311 7.39049 45.7711 7.29167C46.8017 7.06108 47.8369 7.03518 48.8816 7.0587C48.9474 7.06106 49.0133 7.05872 49.0769 7.04931C49.1404 7.0399 49.2181 7.03285 49.2628 6.9952C49.3545 6.9105 49.4463 6.81636 49.5075 6.70577C49.5922 6.54812 49.3992 6.32227 49.1945 6.34815C47.7098 6.52697 46.2252 6.70344 44.7428 6.90343C44.4911 6.93637 44.2134 6.98342 44.0675 7.24459ZM148.859 9.68691C148.652 9.7669 148.35 9.87513 148.056 10.0022C147.889 10.0728 147.88 10.3928 148.026 10.5081C148.508 10.8939 149.028 11.1034 149.652 10.901C149.798 10.854 149.927 10.5481 149.854 10.4093C149.666 10.0422 149.383 9.79514 148.859 9.68691ZM124.229 7.64225C124.047 7.65401 123.909 7.63517 123.789 7.67752C123.683 7.71517 123.598 7.81635 123.506 7.88929C123.591 7.96928 123.669 8.11046 123.763 8.12222C124.739 8.24222 125.718 8.34103 126.694 8.43986C126.751 8.44456 126.838 8.40221 126.866 8.35516C126.925 8.25163 126.967 8.134 126.988 8.01635C126.996 7.97165 126.932 7.87047 126.892 7.86812C125.989 7.78577 125.083 7.71284 124.229 7.64225ZM87.1939 7.58343C88.3633 7.06814 88.3633 7.06813 88.6056 6.71755C87.8197 6.57167 87.0527 6.54578 86.1728 6.77401C86.568 7.0846 86.8904 7.34108 87.1939 7.58343ZM115.476 5.50108C114.897 5.40697 114.32 5.30111 113.737 5.22817C113.549 5.20464 113.349 5.25641 113.156 5.28935C113.099 5.29876 113.033 5.35991 113.01 5.41403C112.946 5.56697 113.005 5.67285 113.163 5.70579C113.942 5.87049 114.723 5.77402 115.476 5.50108ZM155.656 10.021C156.28 10.2681 156.901 10.3622 157.539 10.3716C157.621 10.374 157.764 10.2304 157.771 10.1434C157.781 10.0446 157.696 9.89396 157.607 9.83749C157.084 9.50809 156.529 9.39986 155.953 9.69162C155.849 9.74338 155.786 9.8728 155.656 10.021ZM104.768 0.477646C104.657 0.425882 104.547 0.327059 104.438 0.329412C103.603 0.338824 102.765 0.36471 101.93 0.392945C101.874 0.395298 101.822 0.451769 101.768 0.482356C101.876 0.536473 101.987 0.637656 102.095 0.637656C102.93 0.628244 103.768 0.600003 104.603 0.571768C104.659 0.569415 104.714 0.510587 104.768 0.477646ZM162.579 10.8845C162.395 10.9081 162.27 10.9128 162.155 10.9481C162.113 10.9598 162.073 11.0375 162.063 11.0916C162.054 11.1457 162.068 11.2257 162.106 11.261C162.442 11.6116 162.854 11.7457 163.324 11.6092C163.409 11.5857 163.465 11.4304 163.508 11.3269C163.522 11.2939 163.466 11.1951 163.423 11.1786C163.124 11.0657 162.826 10.9692 162.579 10.8845ZM96.3208 6.75049C95.7443 6.65402 95.2878 6.46815 94.7796 6.49639C94.7278 6.49874 94.6314 6.58109 94.6385 6.60932C94.662 6.72226 94.6856 6.88225 94.7656 6.92931C95.2503 7.21872 95.7396 7.23048 96.3208 6.75049ZM120.236 6.03991C120.655 6.32932 121.071 6.34813 121.504 6.17872C121.541 6.1646 121.581 6.07755 121.572 6.0352C121.56 5.98343 121.504 5.91522 121.454 5.90345C121.036 5.78816 120.622 5.72462 120.236 6.03991ZM160.037 10.4893C160.002 10.3481 159.901 10.2704 159.769 10.334C159.682 10.3763 159.583 10.4916 159.579 10.5787C159.569 10.7151 159.703 10.7998 159.833 10.7386C159.922 10.6986 159.971 10.574 160.037 10.4893ZM118.245 6.01403C118.346 6.03991 118.462 6.10815 118.546 6.07992C118.671 6.03992 118.673 5.91522 118.57 5.81875C118.535 5.78581 118.443 5.76227 118.422 5.7811C118.351 5.84698 118.302 5.93403 118.245 6.01403ZM82.0034 6.7552C81.841 6.73402 81.7587 6.78815 81.7963 6.90814C81.8081 6.94344 81.8928 6.96459 81.947 6.974C82.1069 7.00459 82.1892 6.94343 82.1516 6.81638C82.1445 6.78579 82.0575 6.77402 82.0034 6.7552ZM103.603 6.74578C103.551 6.77872 103.5 6.81167 103.448 6.84461C103.49 6.88696 103.525 6.94579 103.577 6.96697C103.631 6.9905 103.704 6.99283 103.761 6.97636C103.817 6.96224 103.862 6.91285 103.914 6.87756C103.81 6.8352 103.706 6.79048 103.603 6.74578ZM50.8438 6.5505C50.8509 6.60697 50.8345 6.68695 50.8651 6.71283C50.9686 6.79989 51.0815 6.77167 51.1568 6.64227C51.178 6.60462 51.1686 6.50814 51.1357 6.48226C51.0298 6.39285 50.9262 6.42579 50.8438 6.5505ZM83.7445 6.78579L83.6787 6.87285L83.808 6.87756L83.7445 6.78579ZM158.343 6.38342C158.301 6.40931 158.259 6.4352 158.216 6.45873C158.299 6.56461 158.383 6.56461 158.468 6.46109C158.426 6.43521 158.386 6.40931 158.343 6.38342ZM48.9192 2.85878L49.0651 2.9388L49.0886 2.82116L48.9192 2.85878ZM99.0877 6.73871C99.0454 6.77401 99.003 6.80696 98.9607 6.84226C98.996 6.88226 99.0243 6.95049 99.0666 6.9599C99.2172 6.99519 99.2831 6.92697 99.2337 6.7905C99.2219 6.75991 99.1372 6.75518 99.0877 6.73871ZM15.4304 10.7551L15.5339 10.814L15.5574 10.7316L15.4304 10.7551Z" fill="#FFC700"/>
<path d="M91.0926 0.287086C90.7162 0.287086 90.3398 0.287086 89.8551 0.287086C90.3492 0.0635599 90.3492 0.0635541 91.0692 0.310609C91.0715 0.310609 91.0926 0.287086 91.0926 0.287086Z" fill="#FFC700"/>
<path d="M157.722 5.45638C157.955 5.24932 158.209 5.09404 158.539 5.16462C158.583 5.17403 158.635 5.22814 158.652 5.2752C158.663 5.30814 158.619 5.3952 158.595 5.3952C158.296 5.41403 157.997 5.42109 157.699 5.4305C157.701 5.4305 157.722 5.45638 157.722 5.45638Z" fill="#FFC700"/>
<path d="M140.073 3.52935L139.953 3.41642L140.099 3.37408L140.073 3.52935Z" fill="#FFC700"/>
<path d="M166.442 7.02812L166.369 6.9952L166.414 7.05638L166.442 7.02812Z" fill="#FFC700"/>
</g>
<defs>
<filter id="filter0_d_179_2661" x="0.631583" y="0" width="177.401" height="24.392" filterUnits="userSpaceOnUse" color-interpolation-filters="sRGB">
<feFlood flood-opacity="0" result="BackgroundImageFix"/>
<feColorMatrix in="SourceAlpha" type="matrix" values="0 0 0 0 0 0 0 0 0 0 0 0 0 0 0 0 0 0 127 0" result="hardAlpha"/>
<feOffset dy="3.36842"/>
<feGaussianBlur stdDeviation="1.68421"/>
<feComposite in2="hardAlpha" operator="out"/>
<feColorMatrix type="matrix" values="0 0 0 0 0 0 0 0 0 0 0 0 0 0 0 0 0 0 0.25 0"/>
<feBlend mode="normal" in2="BackgroundImageFix" result="effect1_dropShadow_179_2661"/>
<feBlend mode="normal" in="SourceGraphic" in2="effect1_dropShadow_179_2661" result="shape"/>
</filter>
</defs>
</svg>
